<svg width="512" height="512" fill="none" version="1.1" viewBox="0 0 512 512" xmlns="http://www.w3.org/2000/svg">
 <rect x="-1.4964e-6" y="4.8272e-8" width="512.19" height="512.49" ry="77.867" fill="#f2785c" style="paint-order:stroke fill markers"/>
 <path d="m58.079 141.8c3.8588-4.9099 8.9409-11.556 13.011-16.307 12.188-13.093 13.77-14.81 24.862-24.49 3.2896-2.5548 7.1906-5.6285 11.007-8.5225-28.151 22.554-31.736 47.523-5.9043 62.951-0.0422 0-0.0422 0-0.0422 0.04 36.122 20.598 115.28 16.147 177.74-10.239 60.5-25.548 82.829-62.093 52.971-83.808-26.211-4.6505-57.461-5.1894-90.526-0.99795l-3.4373-5.369 2.8469-8.9017c19.442-1.6566 37.914-1.2574 53.856 1.3173 3.8586 0.61874 8.9412 1.6766 12.736 2.435 7.3391 1.6965 11.324 2.7144 16.111 4.1714 4.8911 1.3772 9.0673 2.7544 16.342 5.3091 7.1268 2.6546 10.205 3.8521 15.92 6.5466 6.4007 2.7636 12.618 5.8895 18.62 9.3608 47.574 28.322 17.988 79.996-65.959 115.4-83.717 35.288-190.4 40.836-238.2 12.854-0.02107-0.0393-0.08434-0.0804-0.21097-0.11959h0.08434c-26.106-15.648-28.847-38.361-11.83-61.634zm217.81 197.99-0.67501-31.815-23.891-25.148c-78.929 16.925-156.51 13.293-199.65-10.757-0.14769-0.15887-0.50618-0.31927-0.6538-0.47901-24.419-14.232-30.45-32.594-28.615-52.553-5.7146 29.199-6.1785 39.738-5.3561 64.726 1.0122 15.648 10.565 30.079 29.775 41.456l0.14769 0.15888c45.991 27.064 141.81 32.932 228.92 14.41zm99.636 36.424c-111.4 42.294-250.83 44.79-311.39 5.6492 6.5403 15.129 15.439 29.242 26.401 41.874 55.585 35.926 183.56 33.632 285.77-5.1893 59.823-22.693 97.57-52.891 107.48-81.193l2.7847-8.5217c6.6002-21.596 7.8433-39.58 8.8981-55.587-1.2016 34.75-44.451 74.267-119.94 102.97zm-245.92 81.454c3.5005 3.1535 14.508 15.948 70.282 30.079 15.077 3.1536 53.034 13.272 123.15-1.437l0.42137-6.0484-5.5454-8.2231c-65.054 14.57-137.32 9.7001-188.31-14.371zm160.98-251.66 59.234 42.494s12.674 8.6415 0.71656 14.709c-11.914 6.0085-42.512 20.719-42.512 20.719l-30.216-10.679-15.162 6.3869 26.737 21.974 0.21057 34.191 15.711-6.6072 10.417-28.88s31.989-11.656 44.682-16.047c12.758-4.2904 11.051 10.399 11.051 10.399l-6.2842 70.075 20.876-8.782 34.372-94.547s18.219-8.3812 31.04-15.747c12.8-7.3641 17.187-19.579 17.187-19.579s-12.484-5.0904-26.865-0.99799c-14.381 4.0509-33.129 11.276-33.129 11.276l-97.252-39.099zm-125.32-134.44 40.213 30.318 10.987-1.5568-21.889-27.204s-4.765-5.6285 1.6454-6.9657c6.4534-1.3572 22.773-4.5107 22.773-4.5107l12.273 9.281 8.2662-1.1576-9.3625-14.091 4.9342-15.628-7.9917 1.0977-9.4678 11.896s-16.617 1.477-23.153 1.9959c-6.5794 0.47901-3.7549-6.2073-3.7549-6.2073l12.61-32.094-11.049 1.5368-29.1 40.098s-9.7 1.6766-16.722 3.5727c-7.043 1.8762-10.754 7.0256-10.754 7.0256s5.1664 3.9519 12.441 3.8122c7.3382-0.13974 17.101-1.2175 17.101-1.2175zm198.74 389.56-26.021-12.873-5.989 1.9752 15.415 13.053s3.2889 2.6554-0.1691 4.0716c-3.4581 1.3971-12.273 4.8317-12.273 4.8317l-7.2752-3.0737-4.323 1.477 6.0528 6.1075-0.59037 8.9209 4.5129-1.477 3.3735-7.2443s9.1519-2.5755 12.8-3.4936c3.6272-0.93891 2.8038 3.0928 2.8038 3.0928l-3.4373 19.261 6.0113-1.9767 11.786-25.468s5.2086-1.9352 8.9412-3.7124c3.7326-1.7756 5.2086-5.0488 5.2086-5.0488s-3.3112-1.7165-7.4013-0.85894c-4.1124 0.81914-9.4263 2.435-9.4263 2.435z" fill="#ffffff"/>
</svg>
